<mxfile host="app.diagrams.net" modified="2023-12-05T14:32:55.904Z" agent="Mozilla/5.0 (Windows NT 10.0; Win64; x64) AppleWebKit/537.36 (KHTML, like Gecko) Chrome/119.0.0.0 Safari/537.36" etag="E9E9N3NkASjgLp5U8Jzz" version="22.1.5" type="github">
  <diagram name="หน้า-1" id="CJ9bMCa_33PrSNlkk_Rh">
    <mxGraphModel dx="3341" dy="2037" grid="1" gridSize="10" guides="1" tooltips="1" connect="1" arrows="1" fold="1" page="1" pageScale="1" pageWidth="827" pageHeight="1169" math="0" shadow="0">
      <root>
        <mxCell id="0" />
        <mxCell id="1" parent="0" />
        <mxCell id="nWjrP3XqQ4SROgCUYHO6-20" value="" style="edgeStyle=orthogonalEdgeStyle;rounded=0;orthogonalLoop=1;jettySize=auto;html=1;" edge="1" parent="1" source="nWjrP3XqQ4SROgCUYHO6-15" target="nWjrP3XqQ4SROgCUYHO6-19">
          <mxGeometry relative="1" as="geometry" />
        </mxCell>
        <mxCell id="nWjrP3XqQ4SROgCUYHO6-15" value="&lt;font style=&quot;font-size: 18px;&quot;&gt;form.html&lt;br&gt;-username&lt;br&gt;-password&lt;br&gt;-password confirm&lt;/font&gt;" style="rounded=0;whiteSpace=wrap;html=1;" vertex="1" parent="1">
          <mxGeometry x="-1640" y="-1140" width="230" height="210" as="geometry" />
        </mxCell>
        <mxCell id="nWjrP3XqQ4SROgCUYHO6-22" value="" style="edgeStyle=orthogonalEdgeStyle;rounded=0;orthogonalLoop=1;jettySize=auto;html=1;" edge="1" parent="1" source="nWjrP3XqQ4SROgCUYHO6-19" target="nWjrP3XqQ4SROgCUYHO6-21">
          <mxGeometry relative="1" as="geometry" />
        </mxCell>
        <mxCell id="nWjrP3XqQ4SROgCUYHO6-19" value="" style="shape=singleArrow;whiteSpace=wrap;html=1;arrowWidth=0.4;arrowSize=0.4;rounded=0;" vertex="1" parent="1">
          <mxGeometry x="-1390" y="-1065" width="80" height="60" as="geometry" />
        </mxCell>
        <mxCell id="nWjrP3XqQ4SROgCUYHO6-21" value="&lt;font style=&quot;font-size: 18px;&quot;&gt;member.php&lt;br&gt;- get data request body เข้าตัวแปรเช่น&lt;br&gt;&lt;br&gt;var tel = req.body.tel&lt;br&gt;&lt;span style=&quot;&quot;&gt;&lt;span style=&quot;&quot;&gt;&amp;nbsp;&amp;nbsp;&amp;nbsp;&amp;nbsp;&lt;/span&gt;&lt;/span&gt;&lt;span style=&quot;&quot;&gt;&lt;span style=&quot;&quot;&gt;&amp;nbsp;&amp;nbsp;&amp;nbsp;&amp;nbsp;&lt;/span&gt;&lt;/span&gt;&lt;span style=&quot;&quot;&gt;&lt;span style=&quot;&quot;&gt;&amp;nbsp;&amp;nbsp;&amp;nbsp;&amp;nbsp;&lt;/span&gt;&lt;/span&gt;var username = req.body.username&lt;br&gt;&lt;br&gt;&lt;br&gt;&lt;br&gt;-สร้างตัวแปรเก็บ advisor data เช่น&lt;br&gt;&lt;br&gt;var advisor =&amp;nbsp;&lt;br&gt;&lt;/font&gt;&lt;div style=&quot;border-color: var(--border-color); color: rgb(212, 212, 212);&quot;&gt;&lt;font size=&quot;3&quot;&gt;&amp;nbsp; &amp;nbsp; {&amp;nbsp;&quot;_id&quot;&lt;span style=&quot;border-color: var(--border-color); color: rgb(220, 220, 220);&quot;&gt;:&lt;/span&gt;&amp;nbsp;&lt;span style=&quot;border-color: var(--border-color); color: rgb(206, 145, 120);&quot;&gt;&quot;6551d16ccca6a828fa752240&quot;&lt;/span&gt;&lt;span style=&quot;border-color: var(--border-color); color: rgb(220, 220, 220);&quot;&gt;,&lt;/span&gt;&lt;/font&gt;&lt;/div&gt;&lt;div style=&quot;border-color: var(--border-color); color: rgb(212, 212, 212);&quot;&gt;&lt;font size=&quot;3&quot;&gt;&amp;nbsp;&amp;nbsp;&amp;nbsp;&amp;nbsp;&lt;span style=&quot;border-color: var(--border-color); color: rgb(156, 220, 254);&quot;&gt;&quot;partner&quot;&lt;/span&gt;&lt;span style=&quot;border-color: var(--border-color); color: rgb(220, 220, 220);&quot;&gt;:&lt;/span&gt;&amp;nbsp;&lt;span style=&quot;border-color: var(--border-color); color: rgb(220, 220, 220);&quot;&gt;{&lt;/span&gt;&lt;/font&gt;&lt;/div&gt;&lt;div style=&quot;border-color: var(--border-color); color: rgb(212, 212, 212);&quot;&gt;&lt;font size=&quot;3&quot;&gt;&amp;nbsp;&amp;nbsp;&amp;nbsp;&amp;nbsp;&amp;nbsp;&amp;nbsp;&amp;nbsp;&amp;nbsp;&lt;span style=&quot;border-color: var(--border-color); color: rgb(156, 220, 254);&quot;&gt;&quot;_id&quot;&lt;/span&gt;&lt;span style=&quot;border-color: var(--border-color); color: rgb(220, 220, 220);&quot;&gt;:&lt;/span&gt;&amp;nbsp;&lt;span style=&quot;border-color: var(--border-color); color: rgb(206, 145, 120);&quot;&gt;&quot;6506af540fe1087bb1d46f1a&quot;&lt;/span&gt;&lt;span style=&quot;border-color: var(--border-color); color: rgb(220, 220, 220);&quot;&gt;,&lt;/span&gt;&lt;/font&gt;&lt;/div&gt;&lt;div style=&quot;border-color: var(--border-color); color: rgb(212, 212, 212);&quot;&gt;&lt;font size=&quot;3&quot;&gt;&amp;nbsp;&amp;nbsp;&amp;nbsp;&amp;nbsp;&amp;nbsp;&amp;nbsp;&amp;nbsp;&amp;nbsp;&lt;span style=&quot;border-color: var(--border-color); color: rgb(156, 220, 254);&quot;&gt;&quot;name&quot;&lt;/span&gt;&lt;span style=&quot;border-color: var(--border-color); color: rgb(220, 220, 220);&quot;&gt;:&lt;/span&gt;&amp;nbsp;&lt;span style=&quot;border-color: var(--border-color); color: rgb(206, 145, 120);&quot;&gt;&quot;Aox&quot;&lt;/span&gt;&lt;span style=&quot;border-color: var(--border-color); color: rgb(220, 220, 220);&quot;&gt;,&lt;/span&gt;&lt;/font&gt;&lt;/div&gt;&lt;div style=&quot;border-color: var(--border-color); color: rgb(212, 212, 212);&quot;&gt;&lt;font size=&quot;3&quot;&gt;&amp;nbsp;&amp;nbsp;&amp;nbsp;&amp;nbsp;&amp;nbsp;&amp;nbsp;&amp;nbsp;&amp;nbsp;&lt;span style=&quot;border-color: var(--border-color); color: rgb(156, 220, 254);&quot;&gt;&quot;username&quot;&lt;/span&gt;&lt;span style=&quot;border-color: var(--border-color); color: rgb(220, 220, 220);&quot;&gt;:&lt;/span&gt;&amp;nbsp;&lt;span style=&quot;border-color: var(--border-color); color: rgb(206, 145, 120);&quot;&gt;&quot;aox&quot;&lt;/span&gt;&lt;span style=&quot;border-color: var(--border-color); color: rgb(220, 220, 220);&quot;&gt;,&lt;/span&gt;&lt;/font&gt;&lt;/div&gt;&lt;div style=&quot;border-color: var(--border-color); color: rgb(212, 212, 212);&quot;&gt;&lt;font size=&quot;3&quot;&gt;&amp;nbsp;&amp;nbsp;&amp;nbsp;&amp;nbsp;&amp;nbsp;&amp;nbsp;&amp;nbsp;&amp;nbsp;&lt;span style=&quot;border-color: var(--border-color); color: rgb(156, 220, 254);&quot;&gt;&quot;partnerAdvisor&quot;&lt;/span&gt;&lt;span style=&quot;border-color: var(--border-color); color: rgb(220, 220, 220);&quot;&gt;:&lt;/span&gt;&amp;nbsp;&lt;span style=&quot;border-color: var(--border-color); color: rgb(220, 220, 220);&quot;&gt;{&lt;/span&gt;&lt;/font&gt;&lt;/div&gt;&lt;div style=&quot;border-color: var(--border-color); color: rgb(212, 212, 212);&quot;&gt;&lt;font size=&quot;3&quot;&gt;&amp;nbsp;&amp;nbsp;&amp;nbsp;&amp;nbsp;&amp;nbsp;&amp;nbsp;&amp;nbsp;&amp;nbsp;&amp;nbsp;&amp;nbsp;&amp;nbsp;&amp;nbsp;&lt;span style=&quot;border-color: var(--border-color); color: rgb(156, 220, 254);&quot;&gt;&quot;_id&quot;&lt;/span&gt;&lt;span style=&quot;border-color: var(--border-color); color: rgb(220, 220, 220);&quot;&gt;:&lt;/span&gt;&amp;nbsp;&lt;span style=&quot;border-color: var(--border-color); color: rgb(206, 145, 120);&quot;&gt;&quot;64f59ac10d1e57577247437e&quot;&lt;/span&gt;&lt;span style=&quot;border-color: var(--border-color); color: rgb(220, 220, 220);&quot;&gt;,&lt;/span&gt;&lt;/font&gt;&lt;/div&gt;&lt;div style=&quot;border-color: var(--border-color); color: rgb(212, 212, 212);&quot;&gt;&lt;font size=&quot;3&quot;&gt;&amp;nbsp;&amp;nbsp;&amp;nbsp;&amp;nbsp;&amp;nbsp;&amp;nbsp;&amp;nbsp;&amp;nbsp;&amp;nbsp;&amp;nbsp;&amp;nbsp;&amp;nbsp;&lt;span style=&quot;border-color: var(--border-color); color: rgb(156, 220, 254);&quot;&gt;&quot;name&quot;&lt;/span&gt;&lt;span style=&quot;border-color: var(--border-color); color: rgb(220, 220, 220);&quot;&gt;:&lt;/span&gt;&amp;nbsp;&lt;span style=&quot;border-color: var(--border-color); color: rgb(206, 145, 120);&quot;&gt;&quot;team&amp;nbsp;Theking&quot;&lt;/span&gt;&lt;span style=&quot;border-color: var(--border-color); color: rgb(220, 220, 220);&quot;&gt;,&lt;/span&gt;&lt;/font&gt;&lt;/div&gt;&lt;div style=&quot;border-color: var(--border-color); color: rgb(212, 212, 212);&quot;&gt;&lt;font size=&quot;3&quot;&gt;&amp;nbsp;&amp;nbsp;&amp;nbsp;&amp;nbsp;&amp;nbsp;&amp;nbsp;&amp;nbsp;&amp;nbsp;&amp;nbsp;&amp;nbsp;&amp;nbsp;&amp;nbsp;&lt;span style=&quot;border-color: var(--border-color); color: rgb(156, 220, 254);&quot;&gt;&quot;username&quot;&lt;/span&gt;&lt;span style=&quot;border-color: var(--border-color); color: rgb(220, 220, 220);&quot;&gt;:&lt;/span&gt;&amp;nbsp;&lt;span style=&quot;border-color: var(--border-color); color: rgb(206, 145, 120);&quot;&gt;&quot;theking&quot;&lt;/span&gt;&lt;/font&gt;&lt;/div&gt;&lt;div style=&quot;border-color: var(--border-color); color: rgb(212, 212, 212);&quot;&gt;&lt;font size=&quot;3&quot;&gt;&amp;nbsp;&amp;nbsp;&amp;nbsp;&amp;nbsp;&amp;nbsp;&amp;nbsp;&amp;nbsp;&amp;nbsp;&lt;span style=&quot;border-color: var(--border-color); color: rgb(220, 220, 220);&quot;&gt;}&lt;/span&gt;&lt;/font&gt;&lt;/div&gt;&lt;div style=&quot;border-color: var(--border-color); color: rgb(212, 212, 212);&quot;&gt;&lt;font size=&quot;3&quot;&gt;&amp;nbsp;&amp;nbsp;&amp;nbsp;&amp;nbsp;&lt;span style=&quot;border-color: var(--border-color); color: rgb(220, 220, 220);&quot;&gt;},&lt;/span&gt;&lt;/font&gt;&lt;/div&gt;&lt;div style=&quot;border-color: var(--border-color); color: rgb(212, 212, 212);&quot;&gt;&lt;font size=&quot;3&quot;&gt;&amp;nbsp;&amp;nbsp;&amp;nbsp;&amp;nbsp;&lt;span style=&quot;border-color: var(--border-color); color: rgb(156, 220, 254);&quot;&gt;&quot;user&quot;&lt;/span&gt;&lt;span style=&quot;border-color: var(--border-color); color: rgb(220, 220, 220);&quot;&gt;:&lt;/span&gt;&amp;nbsp;&lt;span style=&quot;border-color: var(--border-color); color: rgb(206, 145, 120);&quot;&gt;null&lt;/span&gt;&lt;span style=&quot;border-color: var(--border-color); color: rgb(220, 220, 220);&quot;&gt;,&lt;/span&gt;&lt;/font&gt;&lt;/div&gt;&lt;div style=&quot;border-color: var(--border-color); color: rgb(212, 212, 212);&quot;&gt;&lt;font size=&quot;3&quot;&gt;&amp;nbsp;&amp;nbsp;&amp;nbsp;&amp;nbsp;&lt;span style=&quot;border-color: var(--border-color); color: rgb(156, 220, 254);&quot;&gt;&quot;shortUrl&quot;&lt;/span&gt;&lt;span style=&quot;border-color: var(--border-color); color: rgb(220, 220, 220);&quot;&gt;:&lt;/span&gt;&amp;nbsp;&lt;span style=&quot;border-color: var(--border-color); color: rgb(206, 145, 120);&quot;&gt;&quot;wPZcgdNa&quot;&lt;/span&gt;&lt;span style=&quot;border-color: var(--border-color); color: rgb(220, 220, 220);&quot;&gt;,&lt;/span&gt;&lt;/font&gt;&lt;/div&gt;&lt;div style=&quot;border-color: var(--border-color); color: rgb(212, 212, 212);&quot;&gt;&lt;font size=&quot;3&quot;&gt;&amp;nbsp;&amp;nbsp;&amp;nbsp;&amp;nbsp;&lt;span style=&quot;border-color: var(--border-color); color: rgb(156, 220, 254);&quot;&gt;&quot;path&quot;&lt;/span&gt;&lt;span style=&quot;border-color: var(--border-color); color: rgb(220, 220, 220);&quot;&gt;:&lt;/span&gt;&amp;nbsp;&lt;span style=&quot;border-color: var(--border-color); color: rgb(206, 145, 120);&quot;&gt;&quot;Adwscenter1&quot;&lt;/span&gt;&lt;/font&gt;&lt;/div&gt;&lt;div style=&quot;border-color: var(--border-color); color: rgb(212, 212, 212);&quot;&gt;&lt;span style=&quot;border-color: var(--border-color); color: rgb(220, 220, 220);&quot;&gt;&lt;font size=&quot;3&quot;&gt;}&lt;/font&gt;&lt;/span&gt;&lt;/div&gt;&lt;font size=&quot;3&quot;&gt;&lt;br&gt;&lt;br&gt;-สร้าง api ยิงไปที่&lt;br&gt;url =&amp;nbsp;https://api.apikst.com/register&lt;br&gt;header ต้องใส่ data เป็น&lt;br&gt;webcode = db&lt;br&gt;&lt;br&gt;data body ยิงเป็น json แบบนี้&lt;br&gt;&lt;/font&gt;&lt;div style=&quot;border-color: var(--border-color); color: rgb(212, 212, 212);&quot;&gt;&lt;font size=&quot;3&quot;&gt;{&lt;/font&gt;&lt;/div&gt;&lt;div style=&quot;border-color: var(--border-color); color: rgb(212, 212, 212);&quot;&gt;&lt;font size=&quot;3&quot;&gt;&amp;nbsp;&amp;nbsp;&amp;nbsp;&amp;nbsp;&quot;username&quot;:&lt;span style=&quot;border-color: var(--border-color); color: rgb(206, 145, 120);&quot;&gt;&quot;testerr&quot;&lt;/span&gt;&lt;span style=&quot;border-color: var(--border-color); color: rgb(220, 220, 220);&quot;&gt;,&lt;/span&gt;&lt;/font&gt;&lt;/div&gt;&lt;div style=&quot;border-color: var(--border-color); color: rgb(212, 212, 212);&quot;&gt;&lt;font size=&quot;3&quot;&gt;&amp;nbsp;&amp;nbsp;&amp;nbsp;&amp;nbsp;&lt;span style=&quot;border-color: var(--border-color); color: rgb(156, 220, 254);&quot;&gt;&quot;password&quot;&lt;/span&gt;&lt;span style=&quot;border-color: var(--border-color); color: rgb(220, 220, 220);&quot;&gt;:&lt;/span&gt;&amp;nbsp;&lt;span style=&quot;border-color: var(--border-color); color: rgb(206, 145, 120);&quot;&gt;&quot;123465&quot;&lt;/span&gt;&lt;span style=&quot;border-color: var(--border-color); color: rgb(220, 220, 220);&quot;&gt;,&lt;/span&gt;&lt;/font&gt;&lt;/div&gt;&lt;div style=&quot;border-color: var(--border-color); color: rgb(212, 212, 212);&quot;&gt;&lt;font size=&quot;3&quot;&gt;&amp;nbsp;&amp;nbsp;&amp;nbsp;&amp;nbsp;&lt;span style=&quot;border-color: var(--border-color); color: rgb(156, 220, 254);&quot;&gt;&quot;advisor&quot;&lt;/span&gt;&lt;span style=&quot;border-color: var(--border-color); color: rgb(220, 220, 220);&quot;&gt;:&lt;/span&gt;&amp;nbsp;&lt;span style=&quot;border-color: var(--border-color); color: rgb(220, 220, 220);&quot;&gt;{&lt;/span&gt;&lt;/font&gt;&lt;/div&gt;&lt;div style=&quot;border-color: var(--border-color); color: rgb(212, 212, 212);&quot;&gt;&lt;font size=&quot;3&quot;&gt;&amp;nbsp;&amp;nbsp;&amp;nbsp;&amp;nbsp;&lt;span style=&quot;border-color: var(--border-color); color: rgb(156, 220, 254);&quot;&gt;&quot;_id&quot;&lt;/span&gt;&lt;span style=&quot;border-color: var(--border-color); color: rgb(220, 220, 220);&quot;&gt;:&lt;/span&gt;&amp;nbsp;&lt;span style=&quot;border-color: var(--border-color); color: rgb(206, 145, 120);&quot;&gt;&quot;6551d16ccca6a828fa752240&quot;&lt;/span&gt;&lt;span style=&quot;border-color: var(--border-color); color: rgb(220, 220, 220);&quot;&gt;,&lt;/span&gt;&lt;/font&gt;&lt;/div&gt;&lt;div style=&quot;border-color: var(--border-color); color: rgb(212, 212, 212);&quot;&gt;&lt;font size=&quot;3&quot;&gt;&amp;nbsp;&amp;nbsp;&amp;nbsp;&amp;nbsp;&lt;span style=&quot;border-color: var(--border-color); color: rgb(156, 220, 254);&quot;&gt;&quot;partner&quot;&lt;/span&gt;&lt;span style=&quot;border-color: var(--border-color); color: rgb(220, 220, 220);&quot;&gt;:&lt;/span&gt;&amp;nbsp;&lt;span style=&quot;border-color: var(--border-color); color: rgb(220, 220, 220);&quot;&gt;{&lt;/span&gt;&lt;/font&gt;&lt;/div&gt;&lt;div style=&quot;border-color: var(--border-color); color: rgb(212, 212, 212);&quot;&gt;&lt;font size=&quot;3&quot;&gt;&amp;nbsp;&amp;nbsp;&amp;nbsp;&amp;nbsp;&amp;nbsp;&amp;nbsp;&amp;nbsp;&amp;nbsp;&lt;span style=&quot;border-color: var(--border-color); color: rgb(156, 220, 254);&quot;&gt;&quot;_id&quot;&lt;/span&gt;&lt;span style=&quot;border-color: var(--border-color); color: rgb(220, 220, 220);&quot;&gt;:&lt;/span&gt;&amp;nbsp;&lt;span style=&quot;border-color: var(--border-color); color: rgb(206, 145, 120);&quot;&gt;&quot;6506af540fe1087bb1d46f1a&quot;&lt;/span&gt;&lt;span style=&quot;border-color: var(--border-color); color: rgb(220, 220, 220);&quot;&gt;,&lt;/span&gt;&lt;/font&gt;&lt;/div&gt;&lt;div style=&quot;border-color: var(--border-color); color: rgb(212, 212, 212);&quot;&gt;&lt;font size=&quot;3&quot;&gt;&amp;nbsp;&amp;nbsp;&amp;nbsp;&amp;nbsp;&amp;nbsp;&amp;nbsp;&amp;nbsp;&amp;nbsp;&lt;span style=&quot;border-color: var(--border-color); color: rgb(156, 220, 254);&quot;&gt;&quot;name&quot;&lt;/span&gt;&lt;span style=&quot;border-color: var(--border-color); color: rgb(220, 220, 220);&quot;&gt;:&lt;/span&gt;&amp;nbsp;&lt;span style=&quot;border-color: var(--border-color); color: rgb(206, 145, 120);&quot;&gt;&quot;Aox&quot;&lt;/span&gt;&lt;span style=&quot;border-color: var(--border-color); color: rgb(220, 220, 220);&quot;&gt;,&lt;/span&gt;&lt;/font&gt;&lt;/div&gt;&lt;div style=&quot;border-color: var(--border-color); color: rgb(212, 212, 212);&quot;&gt;&lt;font size=&quot;3&quot;&gt;&amp;nbsp;&amp;nbsp;&amp;nbsp;&amp;nbsp;&amp;nbsp;&amp;nbsp;&amp;nbsp;&amp;nbsp;&lt;span style=&quot;border-color: var(--border-color); color: rgb(156, 220, 254);&quot;&gt;&quot;username&quot;&lt;/span&gt;&lt;span style=&quot;border-color: var(--border-color); color: rgb(220, 220, 220);&quot;&gt;:&lt;/span&gt;&amp;nbsp;&lt;span style=&quot;border-color: var(--border-color); color: rgb(206, 145, 120);&quot;&gt;&quot;aox&quot;&lt;/span&gt;&lt;span style=&quot;border-color: var(--border-color); color: rgb(220, 220, 220);&quot;&gt;,&lt;/span&gt;&lt;/font&gt;&lt;/div&gt;&lt;div style=&quot;border-color: var(--border-color); color: rgb(212, 212, 212);&quot;&gt;&lt;font size=&quot;3&quot;&gt;&amp;nbsp;&amp;nbsp;&amp;nbsp;&amp;nbsp;&amp;nbsp;&amp;nbsp;&amp;nbsp;&amp;nbsp;&lt;span style=&quot;border-color: var(--border-color); color: rgb(156, 220, 254);&quot;&gt;&quot;partnerAdvisor&quot;&lt;/span&gt;&lt;span style=&quot;border-color: var(--border-color); color: rgb(220, 220, 220);&quot;&gt;:&lt;/span&gt;&amp;nbsp;&lt;span style=&quot;border-color: var(--border-color); color: rgb(220, 220, 220);&quot;&gt;{&lt;/span&gt;&lt;/font&gt;&lt;/div&gt;&lt;div style=&quot;border-color: var(--border-color); color: rgb(212, 212, 212);&quot;&gt;&lt;font size=&quot;3&quot;&gt;&amp;nbsp;&amp;nbsp;&amp;nbsp;&amp;nbsp;&amp;nbsp;&amp;nbsp;&amp;nbsp;&amp;nbsp;&amp;nbsp;&amp;nbsp;&amp;nbsp;&amp;nbsp;&lt;span style=&quot;border-color: var(--border-color); color: rgb(156, 220, 254);&quot;&gt;&quot;_id&quot;&lt;/span&gt;&lt;span style=&quot;border-color: var(--border-color); color: rgb(220, 220, 220);&quot;&gt;:&lt;/span&gt;&amp;nbsp;&lt;span style=&quot;border-color: var(--border-color); color: rgb(206, 145, 120);&quot;&gt;&quot;64f59ac10d1e57577247437e&quot;&lt;/span&gt;&lt;span style=&quot;border-color: var(--border-color); color: rgb(220, 220, 220);&quot;&gt;,&lt;/span&gt;&lt;/font&gt;&lt;/div&gt;&lt;div style=&quot;border-color: var(--border-color); color: rgb(212, 212, 212);&quot;&gt;&lt;font size=&quot;3&quot;&gt;&amp;nbsp;&amp;nbsp;&amp;nbsp;&amp;nbsp;&amp;nbsp;&amp;nbsp;&amp;nbsp;&amp;nbsp;&amp;nbsp;&amp;nbsp;&amp;nbsp;&amp;nbsp;&lt;span style=&quot;border-color: var(--border-color); color: rgb(156, 220, 254);&quot;&gt;&quot;name&quot;&lt;/span&gt;&lt;span style=&quot;border-color: var(--border-color); color: rgb(220, 220, 220);&quot;&gt;:&lt;/span&gt;&amp;nbsp;&lt;span style=&quot;border-color: var(--border-color); color: rgb(206, 145, 120);&quot;&gt;&quot;team&amp;nbsp;Theking&quot;&lt;/span&gt;&lt;span style=&quot;border-color: var(--border-color); color: rgb(220, 220, 220);&quot;&gt;,&lt;/span&gt;&lt;/font&gt;&lt;/div&gt;&lt;div style=&quot;border-color: var(--border-color); color: rgb(212, 212, 212);&quot;&gt;&lt;font size=&quot;3&quot;&gt;&amp;nbsp;&amp;nbsp;&amp;nbsp;&amp;nbsp;&amp;nbsp;&amp;nbsp;&amp;nbsp;&amp;nbsp;&amp;nbsp;&amp;nbsp;&amp;nbsp;&amp;nbsp;&lt;span style=&quot;border-color: var(--border-color); color: rgb(156, 220, 254);&quot;&gt;&quot;username&quot;&lt;/span&gt;&lt;span style=&quot;border-color: var(--border-color); color: rgb(220, 220, 220);&quot;&gt;:&lt;/span&gt;&amp;nbsp;&lt;span style=&quot;border-color: var(--border-color); color: rgb(206, 145, 120);&quot;&gt;&quot;theking&quot;&lt;/span&gt;&lt;/font&gt;&lt;/div&gt;&lt;div style=&quot;border-color: var(--border-color); color: rgb(212, 212, 212);&quot;&gt;&lt;font size=&quot;3&quot;&gt;&amp;nbsp;&amp;nbsp;&amp;nbsp;&amp;nbsp;&amp;nbsp;&amp;nbsp;&amp;nbsp;&amp;nbsp;&lt;span style=&quot;border-color: var(--border-color); color: rgb(220, 220, 220);&quot;&gt;}&lt;/span&gt;&lt;/font&gt;&lt;/div&gt;&lt;div style=&quot;border-color: var(--border-color); color: rgb(212, 212, 212);&quot;&gt;&lt;font size=&quot;3&quot;&gt;&amp;nbsp;&amp;nbsp;&amp;nbsp;&amp;nbsp;&lt;span style=&quot;border-color: var(--border-color); color: rgb(220, 220, 220);&quot;&gt;},&lt;/span&gt;&lt;/font&gt;&lt;/div&gt;&lt;div style=&quot;border-color: var(--border-color); color: rgb(212, 212, 212);&quot;&gt;&lt;font size=&quot;3&quot;&gt;&amp;nbsp;&amp;nbsp;&amp;nbsp;&amp;nbsp;&lt;span style=&quot;border-color: var(--border-color); color: rgb(156, 220, 254);&quot;&gt;&quot;user&quot;&lt;/span&gt;&lt;span style=&quot;border-color: var(--border-color); color: rgb(220, 220, 220);&quot;&gt;:&lt;/span&gt;&amp;nbsp;&lt;span style=&quot;border-color: var(--border-color); color: rgb(206, 145, 120);&quot;&gt;null&lt;/span&gt;&lt;span style=&quot;border-color: var(--border-color); color: rgb(220, 220, 220);&quot;&gt;,&lt;/span&gt;&lt;/font&gt;&lt;/div&gt;&lt;div style=&quot;border-color: var(--border-color); color: rgb(212, 212, 212);&quot;&gt;&lt;font size=&quot;3&quot;&gt;&amp;nbsp;&amp;nbsp;&amp;nbsp;&amp;nbsp;&lt;span style=&quot;border-color: var(--border-color); color: rgb(156, 220, 254);&quot;&gt;&quot;shortUrl&quot;&lt;/span&gt;&lt;span style=&quot;border-color: var(--border-color); color: rgb(220, 220, 220);&quot;&gt;:&lt;/span&gt;&amp;nbsp;&lt;span style=&quot;border-color: var(--border-color); color: rgb(206, 145, 120);&quot;&gt;&quot;wPZcgdNa&quot;&lt;/span&gt;&lt;span style=&quot;border-color: var(--border-color); color: rgb(220, 220, 220);&quot;&gt;,&lt;/span&gt;&lt;/font&gt;&lt;/div&gt;&lt;div style=&quot;border-color: var(--border-color); color: rgb(212, 212, 212);&quot;&gt;&lt;font size=&quot;3&quot;&gt;&amp;nbsp;&amp;nbsp;&amp;nbsp;&amp;nbsp;&lt;span style=&quot;border-color: var(--border-color); color: rgb(156, 220, 254);&quot;&gt;&quot;path&quot;&lt;/span&gt;&lt;span style=&quot;border-color: var(--border-color); color: rgb(220, 220, 220);&quot;&gt;:&lt;/span&gt;&amp;nbsp;&lt;span style=&quot;border-color: var(--border-color); color: rgb(206, 145, 120);&quot;&gt;&quot;Adwscenter1&quot;&lt;/span&gt;&lt;/font&gt;&lt;/div&gt;&lt;div style=&quot;border-color: var(--border-color); color: rgb(212, 212, 212);&quot;&gt;&lt;span style=&quot;border-color: var(--border-color); color: rgb(220, 220, 220);&quot;&gt;&lt;font size=&quot;3&quot;&gt;},&lt;/font&gt;&lt;/span&gt;&lt;/div&gt;&lt;div style=&quot;border-color: var(--border-color); color: rgb(212, 212, 212);&quot;&gt;&lt;font size=&quot;3&quot;&gt;&amp;nbsp;&amp;nbsp;&amp;nbsp;&amp;nbsp;&lt;span style=&quot;border-color: var(--border-color); color: rgb(156, 220, 254);&quot;&gt;&quot;confirmPassword&quot;&lt;/span&gt;&lt;span style=&quot;border-color: var(--border-color); color: rgb(220, 220, 220);&quot;&gt;:&lt;/span&gt;&amp;nbsp;&lt;span style=&quot;border-color: var(--border-color); color: rgb(206, 145, 120);&quot;&gt;&quot;123465&quot;&lt;/span&gt;&lt;/font&gt;&lt;/div&gt;&lt;div style=&quot;border-color: var(--border-color); color: rgb(212, 212, 212);&quot;&gt;&lt;span style=&quot;border-color: var(--border-color); color: rgb(220, 220, 220);&quot;&gt;&lt;font size=&quot;3&quot;&gt;}&lt;/font&gt;&lt;/span&gt;&lt;/div&gt;&lt;font size=&quot;3&quot;&gt;&lt;br&gt;เปลี่ยนข้อมูลตรง username,password,confirm_password ให้เอาตัวแปรมาใส่&lt;br&gt;&lt;br&gt;- redirect&amp;nbsp;&lt;br&gt;url =&amp;nbsp;https://www.duckbet.cc/auth?uname=testerr2&amp;amp;pword=123465&amp;amp;ref=wPZcgdNa&amp;amp;uid=web1&lt;br&gt;&lt;br&gt;*****&lt;br&gt;*เปลี่ยนข้อมมูลลิงค์ redirect ด้วยตรง uname,&amp;nbsp; pword&lt;br&gt;*จะ redirect ได้ก็ต่อเมื่อตอนยิง api ด้านบนแล้วเซิฟเวอร์ตอบกลับเป็นแบบนี้&lt;br&gt;&lt;br&gt;&lt;/font&gt;&lt;div style=&quot;border-color: var(--border-color); color: rgb(212, 212, 212);&quot;&gt;{&lt;/div&gt;&lt;div style=&quot;border-color: var(--border-color); color: rgb(212, 212, 212);&quot;&gt;&amp;nbsp;&amp;nbsp;&amp;nbsp;&amp;nbsp;&quot;username&quot;&lt;span style=&quot;border-color: var(--border-color); color: rgb(220, 220, 220);&quot;&gt;:&lt;/span&gt;&amp;nbsp;&lt;span style=&quot;border-color: var(--border-color); color: rgb(206, 145, 120);&quot;&gt;&quot;testerr&quot;&lt;/span&gt;&lt;span style=&quot;border-color: var(--border-color); color: rgb(220, 220, 220);&quot;&gt;,&lt;/span&gt;&lt;/div&gt;&lt;div style=&quot;border-color: var(--border-color); color: rgb(212, 212, 212);&quot;&gt;&amp;nbsp;&amp;nbsp;&amp;nbsp;&amp;nbsp;&lt;span style=&quot;border-color: var(--border-color); color: rgb(156, 220, 254);&quot;&gt;&quot;password&quot;&lt;/span&gt;&lt;span style=&quot;border-color: var(--border-color); color: rgb(220, 220, 220);&quot;&gt;:&lt;/span&gt;&amp;nbsp;&lt;span style=&quot;border-color: var(--border-color); color: rgb(206, 145, 120);&quot;&gt;&quot;123465&quot;&lt;/span&gt;&lt;/div&gt;&lt;div style=&quot;border-color: var(--border-color); color: rgb(212, 212, 212);&quot;&gt;&lt;span style=&quot;border-color: var(--border-color); color: rgb(220, 220, 220);&quot;&gt;}&lt;/span&gt;&lt;/div&gt;&lt;div style=&quot;border-color: var(--border-color); color: rgb(212, 212, 212);&quot;&gt;&lt;br&gt;&lt;/div&gt;" style="whiteSpace=wrap;html=1;rounded=0;" vertex="1" parent="1">
          <mxGeometry x="-1249" y="-1160" width="600" height="1400" as="geometry" />
        </mxCell>
      </root>
    </mxGraphModel>
  </diagram>
</mxfile>
